<svg xmlns="http://www.w3.org/2000/svg" width="512" height="512" viewBox="0 0 512 512">
  <path fill="#f0f0f0" d="M256 42.667c-117.82 0-213.333 95.514-213.333 213.333S138.18 469.333 256 469.333 469.333 373.82 469.333 256 373.82 42.667 256 42.667z"/>
  <path fill="#e0e0e0" d="M256 85.333c-94.257 0-170.667 76.41-170.667 170.667S161.743 426.667 256 426.667 426.667 350.257 426.667 256 350.257 85.333 256 85.333z"/>
  <path fill="#bdbdbd" d="M213.333 213.333l-42.667 85.334h170.667l-42.666-85.334z"/>
  <path fill="#9e9e9e" d="M298.667 213.333l42.666 85.334h-170.667l42.667-85.334z"/>
  <circle fill="#757575" cx="213.333" cy="170.667" r="21.333"/>
  <circle fill="#757575" cx="298.667" cy="170.667" r="21.333"/>
  <path fill="#616161" d="M256 352c-23.564 0-42.667-19.103-42.667-42.667h85.334C298.667 332.897 279.564 352 256 352z"/>
</svg>